<svg id="Layer_1" data-name="Layer 1" xmlns="http://www.w3.org/2000/svg" width="215" height="29" viewBox="0 0 215 29"><title>02b-ABBYY-HelpCenter-logo</title><rect width="215" height="29" fill="none"/><path d="M23,14.6c.9,0,2.6-.4,2.6,2.6s-1.7,2.5-2.6,2.5h-.9V14.6Zm0-9.3c1.7,0,2.1.8,2.1,2.5s-.4,2.6-2.1,2.6h-.9V5.3ZM17,1V24h7.7c5.1,0,6-3.4,6-6s-.7-5.1-3.4-5.9A5.7,5.7,0,0,0,30.7,7c0-5.1-4.3-6-6.8-6ZM38.3,14.6c.9,0,2.6-.4,2.6,2.6s-1.7,2.5-2.6,2.5h-.8V14.6Zm0-9.3c1.7,0,2.2.8,2.2,2.5s-.5,2.6-2.2,2.6h-.8V5.3ZM32.4,1V24H40c5.1,0,6-3.4,6-6s-.7-5.1-3.4-5.9A5.5,5.5,0,0,0,46,7c0-5.1-4.3-6-6.8-6ZM56.2,1s-1.8,7.8-2.3,9.2C53.5,8.8,52,1,52,1H46.9l4.2,14.5V24h5.1V15.5L61.3,1ZM71.6,1s-1.9,7.8-2.4,9.2C68.8,8.8,67.3,1,67.3,1H62.2l4.2,14.5V24h5.2V15.5L76.7,1ZM6.8,15.5,8.1,7.8l1.3,7.7ZM11.5,24h4.7L11.1,1h-6L0,24H4.7L6,19.3h4.2ZM79.2,1a1.7,1.7,0,0,1,1.7,1.7,1.7,1.7,0,0,1-1.7,1.7,1.8,1.8,0,0,1-1.7-1.7A1.8,1.8,0,0,1,79.2,1Zm0,3.2a1.5,1.5,0,0,0,1.4-1.5h0a1.4,1.4,0,0,0-1.4-1.4,1.4,1.4,0,0,0-1.4,1.4h0a1.5,1.5,0,0,0,1.4,1.5Zm-.6-2.3h.7a.4.4,0,0,1,.6.4h0c0,.2-.1.4-.3.4a.5.5,0,0,1,.3.4v.4h-.3c-.1,0,0-.1-.1-.3s0-.4-.3-.4h-.3v.8h-.3Zm.3.7h.4a.3.3,0,0,0,.3-.3c0-.1-.1-.2-.3-.2h-.4Z" fill="#c60c30"/><path d="M90,24V1h2v9.8h9V1h2V24h-2V12.6H92V24Z" fill="#505a64"/><path d="M116,15.4h-8.2c0,3.9.4,7,3.2,7s3-2.1,3.2-4.1H116c0,2.8-.5,5.7-5,5.7s-5-5.4-5-8.5S106,7,111,7s5,3.7,5,6.8Zm-1.8-1.5c0-2-.3-5.4-3.2-5.4s-3.2,3.5-3.2,5.4Z" fill="#505a64"/><path d="M119,24V1h2V24Z" fill="#505a64"/><path d="M126.8,29H125V7.2h1.7V8.7h.1A4,4,0,0,1,130,6.8c4.5,0,5,4.7,5,8.2s-.4,9.1-4.8,9.1a3.8,3.8,0,0,1-3.4-1.8Zm0-13.6c0,4.5.4,7.1,3.2,7.1s3.3-3.6,3.3-6.9-.3-7.3-3.2-7.3S126.8,10.5,126.8,15.4Z" fill="#505a64"/><path d="M158,16c0,4.3-1.9,8-6.5,8-6.3,0-6.5-5.7-6.5-12,0-4.5,0-11,6.5-11,4.1,0,6.4,3.1,6.4,6.8h-2.1c-.1-2.6-1.2-5.1-4.3-5.1S147,7.8,147,12s.4,10.3,4.5,10.3S156,18.7,156,16Z" fill="#505a64"/><path d="M175.9,24H174V7.2h1.9V8.9h0a4.8,4.8,0,0,1,4-2.1c2.2,0,4.1,1,4.1,3.9V24h-1.9V11.8c0-1.9-.1-3.5-2.5-3.5a3.6,3.6,0,0,0-3.7,3.3Z" fill="#505a64"/><path d="M193,23.8a10.6,10.6,0,0,1-2.3.2,2.4,2.4,0,0,1-2.5-2.5V8.8h-1.6V7.3h1.6V2.5H190V7.3h2.4V8.8H190V21.1c0,1,.3,1.4,1.5,1.4a4,4,0,0,0,1.5-.3Z" fill="#505a64"/><path d="M209.8,24H208V7.2h1.8v2c1-1.9,2.1-2.4,4.2-2.4V8.7c-2.8,0-4.2,1.7-4.2,4.3Z" fill="#505a64"/><path d="M171,15.4h-8.2c0,3.9.4,7,3.2,7s3-2.1,3.2-4.1H171c0,2.8-.4,5.7-5,5.7s-5-5.4-5-8.5S161,7,166,7s5,3.7,5,6.8Zm-1.8-1.5c0-2-.3-5.4-3.2-5.4s-3.2,3.5-3.2,5.4Z" fill="#505a64"/><path d="M205,15.4h-8.2c0,3.9.4,7,3.2,7s3-2.1,3.2-4.1H205c0,2.8-.4,5.7-5,5.7s-5-5.4-5-8.5S195,7,200,7s5,3.7,5,6.8Zm-1.8-1.5c0-2-.3-5.4-3.2-5.4s-3.2,3.5-3.2,5.4Z" fill="#505a64"/></svg>