<?xml version="1.0" encoding="UTF-8" standalone="no"?>
<!DOCTYPE svg PUBLIC "-//W3C//DTD SVG 1.1//EN" "http://www.w3.org/Graphics/SVG/1.1/DTD/svg11.dtd">
<svg version="1.1" xmlns="http://www.w3.org/2000/svg" xmlns:xlink="http://www.w3.org/1999/xlink" preserveAspectRatio="xMidYMid meet" viewBox="0 0 640 640" width="640" height="640"><defs><path d="M14 0C14 0 14 0 14 0C14 7.2 14 11.2 14 12C14 12 14 12 14 12C5.6 12 0.93 12 0 12C0 12 0 12 0 12C0 4.8 0 0.8 0 0C0 0 0 0 0 0C8.4 0 13.07 0 14 0Z" id="gs6WDhnKh"></path><path d="M14 5C14 5 14 5 14 5C14 6.2 14 6.87 14 7C14 7 14 7 14 7C7.4 7 3.73 7 3 7C3 7 3 7 3 7C3 5.8 3 5.13 3 5C3 5 3 5 3 5C9.6 5 13.27 5 14 5Z" id="b2GDCWAYeH"></path><path d="M7 1L2 6L7 11" id="a7PvObKhM"></path></defs><g><g><g><use xlink:href="#gs6WDhnKh" opacity="1" fill="#000000" fill-opacity="0"></use><g><use xlink:href="#gs6WDhnKh" opacity="1" fill-opacity="0" stroke="#000000" stroke-width="1" stroke-opacity="0"></use></g></g><g><use xlink:href="#b2GDCWAYeH" opacity="1" fill="#f0f5fa" fill-opacity="1"></use><g><use xlink:href="#b2GDCWAYeH" opacity="1" fill-opacity="0" stroke="#000000" stroke-width="1" stroke-opacity="0"></use></g></g><g><use xlink:href="#a7PvObKhM" opacity="1" fill="#000000" fill-opacity="0"></use><g><use xlink:href="#a7PvObKhM" opacity="1" fill-opacity="0" stroke="#f0f5fa" stroke-width="2" stroke-opacity="1"></use></g></g></g></g></svg>