<svg id="Layer_1" data-name="Layer 1" xmlns="http://www.w3.org/2000/svg" width="35" height="24" viewBox="0 0 35 24"><title>flag-brazil-35x24</title><polygon points="0 0 0 24 35 24 35 0 0 0 0 0" fill="#46b61c"/><polygon points="32 12 17.5 21.5 3 12 17.5 2.5 32 12 32 12" fill="#fce63f"/><circle cx="17.5" cy="12" r="6" fill="#fff"/><path d="M11.7,10.5a7.7,7.7,0,0,0-.2,1.5,6,6,0,0,0,6,6,5.9,5.9,0,0,0,5.7-4.2,12.7,12.7,0,0,0-5.5-3,12.7,12.7,0,0,0-6-.3Zm6.2-.5a12.1,12.1,0,0,1,5.5,2.9,2.8,2.8,0,0,0,.1-.9A6,6,0,0,0,12,9.6a14.4,14.4,0,0,1,5.9.4Z" fill="#014eaa"/><polygon points="11.3 10.5 11.3 10.5 11.3 10.5 11.3 10.5" fill="#fff"/><path d="M34,1V23H1V1H34m1-1H0V24H35V0Z" fill="#ccc"/><ellipse cx="12.5" cy="10.9" rx="0.2" ry="0.2" fill="#fff"/><ellipse cx="13.1" cy="13.5" rx="0.2" ry="0.2" fill="#fff"/><ellipse cx="19.4" cy="10.1" rx="0.2" ry="0.2" fill="#fff"/><ellipse cx="17.5" cy="14.8" rx="0.2" ry="0.2" fill="#fff"/><ellipse cx="15.1" cy="15.3" rx="0.2" ry="0.2" fill="#fff"/><ellipse cx="17.5" cy="13" rx="0.2" ry="0.2" fill="#fff"/><ellipse cx="14.2" cy="14.7" rx="0.2" ry="0.2" fill="#fff"/><ellipse cx="14.3" cy="14.1" rx="0.2" ry="0.2" fill="#fff"/><ellipse cx="15.2" cy="12.2" rx="0.2" ry="0.2" fill="#fff"/><ellipse cx="16.9" cy="13.6" rx="0.2" ry="0.2" fill="#fff"/><ellipse cx="18.1" cy="13.5" rx="0.2" ry="0.2" fill="#fff"/><ellipse cx="19.2" cy="11.7" rx="0.2" ry="0.2" fill="#fff"/><ellipse cx="21.7" cy="14.2" rx="0.2" ry="0.2" fill="#fff"/><ellipse cx="21.6" cy="15.2" rx="0.2" ry="0.2" fill="#fff"/><ellipse cx="20.5" cy="16" rx="0.2" ry="0.2" fill="#fff"/><ellipse cx="19.3" cy="16.2" rx="0.2" ry="0.2" fill="#fff"/><circle cx="18.8" cy="15.5" r="0.1" fill="#fff"/><circle cx="19.8" cy="15.6" r="0.1" fill="#fff"/><circle cx="20.5" cy="15.4" r="0.1" fill="#fff"/></svg>