<svg xmlns="http://www.w3.org/2000/svg" width="22" height="22" viewBox="0 0 22 22"><title>Common-074-22x22</title><g id="Layer_2" data-name="Layer 2"><g id="Слой_1" data-name="Слой 1"><rect width="22" height="22" fill="none"/><path d="M10,3a2.5,2.5,0,0,1,2,2.4V9h6.6c.8,0,1.4.5,1.4,1v3c0,2.3-1.3,5-4.9,5H8.4C7.2,18,7,16.9,7,16V11c0-.6.1-1.9,1.2-2L10,8.8V3M9.6,1H9.1A1.1,1.1,0,0,0,8,2.1V7c-2.1.3-3,2.1-3,4v5c0,2,1,4,3.4,4h6.7A6.6,6.6,0,0,0,22,13V10a3.2,3.2,0,0,0-3.4-3H14V5.4A4.4,4.4,0,0,0,9.6,1Z" fill="#afb9c3"/><path d="M4.4,9A3.3,3.3,0,0,1,5,11v5a3.3,3.3,0,0,1-.6,2h-2a.4.4,0,0,1-.4-.4V9.4A.4.4,0,0,1,2.4,9h2m.2-2H2.4A2.4,2.4,0,0,0,0,9.4v8.2A2.4,2.4,0,0,0,2.4,20H4.6C6,20,7,18,7,16V11C7,9,6,7,4.6,7Z" fill="#afb9c3"/></g></g></svg>