<svg xmlns="http://www.w3.org/2000/svg" width="17" height="17" viewBox="0 0 17 17"><title>Common-074-2-17x17</title><g id="Layer_2" data-name="Layer 2"><g id="Слой_1" data-name="Слой 1"><rect width="17" height="17" fill="none"/><path d="M14,5H12A4,4,0,0,0,8,1H7.7C7,1,6,1.3,6,3V5.2A2.7,2.7,0,0,0,4.5,6.3,1.2,1.2,0,0,0,3.6,6H2.4A2.5,2.5,0,0,0,0,8.5v5A2.5,2.5,0,0,0,2.4,16H3.6a1.9,1.9,0,0,0,1.5-.8A2.9,2.9,0,0,0,7,16h5c2.4,0,5-2.3,5-6V8A2.9,2.9,0,0,0,14,5ZM3.6,14H2.4a.5.5,0,0,1-.4-.5v-5A.5.5,0,0,1,2.4,8H3.6C4,8,4,8.7,4,9.5v3C4,13.3,4,14,3.6,14ZM15,10c0,2.5-1.6,4-3,4H7a1.3,1.3,0,0,1-1-1V8A.9.9,0,0,1,7,7H8V3a2.2,2.2,0,0,1,2,2V7h4a.9.9,0,0,1,1,1Z" fill="#afb9c3"/></g></g></svg>