<?xml version="1.0" encoding="UTF-8" standalone="no"?>
<!DOCTYPE svg PUBLIC "-//W3C//DTD SVG 1.1//EN" "http://www.w3.org/Graphics/SVG/1.1/DTD/svg11.dtd">
<svg version="1.1" xmlns="http://www.w3.org/2000/svg" xmlns:xlink="http://www.w3.org/1999/xlink" preserveAspectRatio="xMidYMid meet" viewBox="0 0 22 22" width="22" height="22"><defs><path d="M13.71 0.34L14.98 0.74L16.17 1.29L17.28 1.97L18.31 2.78L19.22 3.69L20.03 4.72L20.71 5.83L21.26 7.02L21.66 8.29L21.91 9.62L22 11L21.91 12.38L21.66 13.71L21.26 14.98L20.71 16.17L20.03 17.28L19.22 18.31L18.31 19.22L17.28 20.03L16.17 20.71L14.98 21.26L13.71 21.66L12.38 21.91L11 22L9.62 21.91L8.29 21.66L7.02 21.26L5.83 20.71L4.72 20.03L3.69 19.22L2.78 18.31L1.97 17.28L1.29 16.17L0.74 14.98L0.34 13.71L0.09 12.38L0 11L0.09 9.62L0.34 8.29L0.74 7.02L1.29 5.83L1.97 4.72L2.78 3.69L3.69 2.78L4.72 1.97L5.83 1.29L7.02 0.74L8.29 0.34L9.62 0.09L11 0L12.38 0.09L13.71 0.34ZM8.34 1.36L7.11 1.79L5.95 2.37L4.89 3.08L3.93 3.93L3.08 4.89L2.37 5.95L1.79 7.11L1.36 8.34L1.09 9.64L1 11L1.09 12.36L1.36 13.66L1.79 14.89L2.37 16.05L3.08 17.11L3.93 18.07L4.89 18.92L5.95 19.63L7.11 20.21L8.34 20.64L9.64 20.91L11 21L12.36 20.91L13.66 20.64L14.89 20.21L16.05 19.63L17.11 18.92L18.07 18.07L18.92 17.11L19.63 16.05L20.21 14.89L20.64 13.66L20.91 12.36L21 11L20.91 9.64L20.64 8.34L20.21 7.11L19.63 5.95L18.92 4.89L18.07 3.93L17.11 3.08L16.05 2.37L14.89 1.79L13.66 1.36L12.36 1.09L11 1L9.64 1.09L8.34 1.36ZM17 10L17 12L12 12L12 17L10 17L10 12L5 12L5 10L10 10L10 5L12 5L12 10L17 10Z" id="a10fPXZkrm"></path></defs><g><g><g><use xlink:href="#a10fPXZkrm" opacity="1" fill="#73509b" fill-opacity="1"></use><g><use xlink:href="#a10fPXZkrm" opacity="1" fill-opacity="0" stroke="#000000" stroke-width="1" stroke-opacity="0"></use></g></g></g></g></svg>