<svg xmlns="http://www.w3.org/2000/svg" width="21" height="22" viewBox="0 0 21 22"><title>Common-057b-21x22</title><path d="M14.59 1l5.41 5.41v14.59h-19v-20h13.59m.41-1h-15v22h21v-16l-6-6z" fill="#607acd"/><path d="M0 0h21v22h-21z" fill="none"/><path d="M18.82 13.24c-.4-.68-1.43-1-3.13-1a15.1 15.1 0 0 0-1.77.1 10 10 0 0 1-1.19-.84 8.64 8.64 0 0 1-2.19-3.72s0-.12.05-.2c.45-1.93.88-4.27 0-5.23a1.14 1.14 0 0 0-.86-.35h-.33c-.51 0-1 .57-1.08 1.12a7.56 7.56 0 0 0 .3 4.75 25.48 25.48 0 0 1-1.48 4.25c-.47 1-.9 1.86-1.32 2.61a7.91 7.91 0 0 0-1.22.71 5.62 5.62 0 0 0-2.6 3.09 1.39 1.39 0 0 0 .07.78v.07l.66.45a1.18 1.18 0 0 0 .6.16c1.11 0 2.37-1.38 4.07-4.46l.25-.1a27.34 27.34 0 0 1 5.53-1.09 9.56 9.56 0 0 0 4.11 1.07 1.56 1.56 0 0 0 1.31-.41 1.44 1.44 0 0 0 .4-1 1.22 1.22 0 0 0-.18-.76zm-15.67 5.76a5.38 5.38 0 0 1 1.66-2.45 5.58 5.58 0 0 1 .66-.45c-.89 1.71-1.7 2.67-2.32 2.9zm6.36-15.93l.1-.17.21.1a2.1 2.1 0 0 1 .12 1.6v.23l-.22 1.19-.11-.02a5.54 5.54 0 0 1-.1-2.93zm-1.71 11.33l-.15.06a9 9 0 0 1 .69-1.51 22.21 22.21 0 0 0 1.38-3.49 8.92 8.92 0 0 0 2.1 3.12 4.73 4.73 0 0 0 .56.46 24.75 24.75 0 0 0-4.58 1.36zm10.2-.09a1.44 1.44 0 0 1-.26 0 7 7 0 0 1-2.61-.74.35.35 0 0 1 .32-.15c1.92 0 2.47.36 2.61.51a.57.57 0 0 1 .12.16c-.03.18-.07.19-.18.22z" fill="#607acd"/></svg>