<svg xmlns="http://www.w3.org/2000/svg" width="33" height="33" viewBox="0 0 33 33"><title>Features-244v2-33x33</title><g id="Layer_2" data-name="Layer 2"><g id="Features"><rect width="33" height="33" fill="none"/><rect x="10" y="11" width="13" height="2" fill="#7f4f9e"/><rect x="10" y="15" width="13" height="2" fill="#7f4f9e"/><rect x="10" y="19" width="13" height="2" fill="#7f4f9e"/><path d="M16.5,5C23.4,5,29,9.9,29,16a9.6,9.6,0,0,1-1.7,5.4l-.5.9.4,1L28.7,27l-5.1-1.4-.7-.2-.6.4A14.3,14.3,0,0,1,16.5,27C9.6,27,4,22.1,4,16S9.6,5,16.5,5m0-2C8.5,3,2,8.8,2,16S8.5,29,16.5,29a16.6,16.6,0,0,0,6.6-1.4L32,30l-3-7.5A11.6,11.6,0,0,0,31,16C31,8.8,24.5,3,16.5,3Z" fill="#7f4f9e"/></g></g></svg>