<svg xmlns="http://www.w3.org/2000/svg" width="55" height="55" viewBox="0 0 55 55"><title>Features-244v3-55x55</title><g id="Layer_2" data-name="Layer 2"><g id="Features"><circle cx="27.5" cy="27.5" r="27.5" fill="#875faf"/><rect x="21" y="22" width="13" height="2" fill="#fff"/><rect x="21" y="26" width="13" height="2" fill="#fff"/><rect x="21" y="30" width="13" height="2" fill="#fff"/><path d="M27.5,16C34.4,16,40,20.9,40,27a9.6,9.6,0,0,1-1.7,5.4l-.5.9.4,1L39.7,38l-5.1-1.4-.7-.2-.6.4A14.3,14.3,0,0,1,27.5,38C20.6,38,15,33.1,15,27s5.6-11,12.5-11m0-2C19.5,14,13,19.8,13,27s6.5,13,14.5,13a16.6,16.6,0,0,0,6.6-1.4L43,41l-3-7.5A11.6,11.6,0,0,0,42,27C42,19.8,35.5,14,27.5,14Z" fill="#fff"/></g></g></svg>