<svg xmlns="http://www.w3.org/2000/svg" width="55" height="55" viewBox="0 0 55 55"><title>Features-248v3-55x55</title><g id="Layer_2" data-name="Layer 2"><g id="Features"><g id="_152" data-name="152"><circle cx="27.5" cy="27.5" r="27.5" fill="#875faf"/><polygon points="29 19.1 29 37.3 29.4 37 30 37 40 37 40 18 30.6 18 29 19.1" fill="none"/><polygon points="15 18 15 37 25 37 25.6 37 26 37.3 26 19.1 24.4 18 15 18" fill="none"/><path d="M27.5,17.7,25,16H13V39H25l2,1.3V18ZM26,37.3l-.4-.3H15V18h9.4L26,19.1Z" fill="#fff"/><path d="M30,16l-2.5,1.7.5.3V40.3L30,39H42V16ZM40,37H29.4l-.4.3V19.1L30.6,18H40Z" fill="#fff"/><polygon points="27.5 17.7 27 18 27 40.3 27.5 40.7 28 40.3 28 18 27.5 17.7" fill="#fff"/><polygon points="24 20 17 20 17 22 24 22 24 20 24 20" fill="#fff"/><polygon points="24 24 17 24 17 26 24 26 24 24 24 24" fill="#fff"/><polygon points="24 29 17 29 17 31 24 31 24 29 24 29" fill="#fff"/><polygon points="24 33 17 33 17 35 24 35 24 33 24 33" fill="#fff"/><polygon points="38 20 31 20 31 22 38 22 38 20 38 20" fill="#fff"/><polygon points="38 24 31 24 31 26 38 26 38 24 38 24" fill="#fff"/><polygon points="38 29 31 29 31 31 38 31 38 29 38 29" fill="#fff"/><polygon points="38 33 31 33 31 35 38 35 38 33 38 33" fill="#fff"/></g></g></g></svg>