<svg xmlns="http://www.w3.org/2000/svg" width="33" height="33" viewBox="0 0 33 33"><title>Features-141v2-33x33_1</title><g id="Layer_2" data-name="Layer 2"><g id="Features"><rect width="33" height="33" fill="none"/><path d="M19.2,15.6A2.2,2.2,0,0,1,17,13.3a3.3,3.3,0,0,1,.4-1.3H17a4,4,0,1,0,4,4,3.6,3.6,0,0,0-.2-1.1A2.2,2.2,0,0,1,19.2,15.6Z" fill="#7f4f9e"/><path d="M17,9a7,7,0,1,1-7,7,7,7,0,0,1,7-7m0-2a9,9,0,1,0,9,9,9,9,0,0,0-9-9Z" fill="#7f4f9e"/><path d="M16.5,8a14.7,14.7,0,0,1,13.3,8,14.8,14.8,0,0,1-13.3,8C8.2,24,4.4,18.9,3.2,16.9,4.3,14.6,8.2,8,16.5,8m0-2C5,6,1,17,1,17s4,9,15.5,9A16.9,16.9,0,0,0,32,16,16.9,16.9,0,0,0,16.5,6Z" fill="#7f4f9e"/></g></g></svg>