<svg xmlns="http://www.w3.org/2000/svg" width="33" height="33" viewBox="0 0 33 33"><defs><style>.cls-1{fill:#7f4f9e;}.cls-2{fill:none;}</style></defs><title>Features-107v2-33x33</title><g id="Features"><path class="cls-1" d="M28.35 10.69l-.67-.51a1.64 1.64 0 0 1-.52-2l.33-.77a1.64 1.64 0 0 0-1.31-2.27l-.83-.1a1.64 1.64 0 0 1-1.43-1.43l-.1-.83a1.64 1.64 0 0 0-2.27-1.31l-.77.33a1.64 1.64 0 0 1-.64.13 1.65 1.65 0 0 1-1.31-.65l-.52-.63a1.64 1.64 0 0 0-2.62 0l-.51.67a1.64 1.64 0 0 1-1.31.68 1.64 1.64 0 0 1-.64-.13l-.77-.33a1.64 1.64 0 0 0-2.27 1.31l-.1.83a1.64 1.64 0 0 1-1.43 1.41l-.83.1a1.64 1.64 0 0 0-1.31 2.27l.33.77a1.64 1.64 0 0 1-.52 2l-.67.51a1.64 1.64 0 0 0 0 2.62l.67.51a1.64 1.64 0 0 1 .52 2l-.33.77a1.64 1.64 0 0 0 1.31 2.27l.83.1a1.64 1.64 0 0 1 1.43 1.43l.1.83a1.63 1.63 0 0 0 .36.84l-1.55 9.49 4.81-1.26 4.19 2.66.57-3.51 2.5-1.83 4.39.94-1.63-7.6.08-.63a1.64 1.64 0 0 1 1.43-1.43l.83-.1a1.64 1.64 0 0 0 1.31-2.27l-.33-.77a1.64 1.64 0 0 1 .52-2l.67-.51a1.64 1.64 0 0 0 .01-2.6zm-11.7 18.05l-.15.94-1.61-1-.74-.47-.84.22-1.84.48 1-6.42.73-.31a1.64 1.64 0 0 1 2 .52l.51.67a1.71 1.71 0 0 0 1.29.63 1.65 1.65 0 0 0 .43-.06l-.58 3.6zm4.83-3l-.87-.19-.72.53-.87.64.75-4.61a1.64 1.64 0 0 1 1 .09l.77.33a1.63 1.63 0 0 0 .6.13l.71 3.34zm5-13.48a3.64 3.64 0 0 0-1.16 4.32l.14.34h-.37a3.69 3.69 0 0 0-3.16 3.16v.37l-.22-.09h-.12a3.62 3.62 0 0 0-1.46-.36 3.65 3.65 0 0 0-2.15.75 3.58 3.58 0 0 0-.4.37 3.53 3.53 0 0 0-.31.33l-.22.29-.22-.29a3.55 3.55 0 0 0-3.9-1.29 3.63 3.63 0 0 0-.42.13l-.34.14v-.37a3.69 3.69 0 0 0-3.16-3.16h-.37l.14-.34a3.64 3.64 0 0 0-1.16-4.32l-.39-.24.29-.22a3.64 3.64 0 0 0 1.16-4.32l-.14-.34h.37a3.64 3.64 0 0 0 3.16-3.16v-.37l.34.14a3.62 3.62 0 0 0 1.46.27 3.66 3.66 0 0 0 2.91-1.44l.22-.33.22.29a3.66 3.66 0 0 0 2.91 1.48 3.62 3.62 0 0 0 1.42-.29l.34-.14v.37a3.64 3.64 0 0 0 3.16 3.16h.37l-.14.34a3.64 3.64 0 0 0 1.16 4.32l.29.22zM17 7.5a4.5 4.5 0 1 1-4.5 4.5 4.51 4.51 0 0 1 4.5-4.5m0-2a6.5 6.5 0 1 0 6.5 6.5 6.5 6.5 0 0 0-6.5-6.5z"/><path class="cls-2" d="M0 0h33v33h-33z"/></g></svg>