<svg xmlns="http://www.w3.org/2000/svg" width="33" height="33" viewBox="0 0 33 33"><title>Features-248v3-33x33</title><g id="Layer_2" data-name="Layer 2"><g id="Features"><path d="M16.5,5.7,14,4H2V27H14l2,1.3V6ZM15,25.3l-.4-.3H4V6h9.4L15,7.1Z" fill="#7f4f9e"/><path d="M19,4,16.5,5.7,17,6V28.3L19,27H31V4ZM29,25H18.4l-.4.3V7.1L19.6,6H29Z" fill="#7f4f9e"/><polygon points="16.5 5.7 16 6 16 28.3 16.5 28.7 17 28.3 17 6 16.5 5.7" fill="#7f4f9e"/><rect x="6" y="8" width="7" height="2" fill="#7f4f9e"/><rect x="6" y="12" width="7" height="2" fill="#7f4f9e"/><rect x="6" y="17" width="7" height="2" fill="#7f4f9e"/><rect x="6" y="21" width="7" height="2" fill="#7f4f9e"/><rect x="20" y="8" width="7" height="2" fill="#7f4f9e"/><rect x="20" y="12" width="7" height="2" fill="#7f4f9e"/><rect x="20" y="17" width="7" height="2" fill="#7f4f9e"/><rect x="20" y="21" width="7" height="2" fill="#7f4f9e"/><rect width="33" height="33" fill="none"/></g></g></svg>