<svg xmlns="http://www.w3.org/2000/svg" width="33" height="33" viewBox="0 0 33 33"><defs><style>.cls-1,.cls-2{fill:none;}.cls-2{stroke:#7f4f9e;stroke-miterlimit:10;stroke-width:2px;}.cls-3{fill:#7f4f9e;}</style></defs><g id="Слой_2" data-name="Слой 2"><g id="Features_2_icons" data-name="Features 2 icons"><rect class="cls-1" width="33" height="33"/><line class="cls-2" x1="7" y1="2" x2="7" y2="31"/><line class="cls-2" x1="5" y1="2" x2="9" y2="2"/><line class="cls-2" x1="4" y1="31" x2="10" y2="31"/><path class="cls-3" d="M18,7V17H8V7H18m2-2H6V19H20V5Z"/><path class="cls-3" d="M28.11,11l-2.74,3.84L24.54,16l.83,1.16L28.11,21H16V19h4V11h8.11M32,9H18v8H14v6H32l-5-7,5-7Z"/><path class="cls-3" d="M16.39,19l-.39.26V19h.39M20,17H14v6l6-4V17Z"/></g></g></svg>