<svg xmlns="http://www.w3.org/2000/svg" width="33" height="33" viewBox="0 0 33 33"><title>Features-142v2-33x33</title><g id="Layer_2" data-name="Layer 2"><g id="Features"><g id="_141" data-name="141"><rect width="33" height="33" fill="none"/><line x1="20" y1="17" x2="1" y2="29" fill="none" stroke="#7f4f9e" stroke-miterlimit="10" stroke-width="2"/><path d="M20.5,10.4l1.3,1,1.2.9,1.2-.9,1.3-1-.2,1.8v1.4l1.3.6,1.7.8-1.7.8-1.3.6v1.4l.2,1.8-1.3-1L23,17.7l-1.2.9-1.3,1,.2-1.8V16.4l-1.3-.6L17.8,15l1.7-.8,1.3-.6V12.2l-.2-1.8M28,6,23,9.8,18,6l.7,6.4L13,15l5.7,2.6L18,24l5-3.8L28,24l-.7-6.4L33,15l-5.7-2.6L28,6Z" fill="#7f4f9e"/><circle cx="15" cy="10" r="1" fill="#7f4f9e"/><circle cx="23" cy="5" r="1" fill="#7f4f9e"/><circle cx="31" cy="10" r="1" fill="#7f4f9e"/><circle cx="31" cy="20" r="1" fill="#7f4f9e"/><circle cx="23" cy="25" r="1" fill="#7f4f9e"/></g></g></g></svg>