<svg xmlns="http://www.w3.org/2000/svg" width="33" height="33" viewBox="0 0 33 33"><defs><style>.cls-1,.cls-3{fill:none;}.cls-2{fill:#7f4f9e;}.cls-3{stroke:#7f4f9e;stroke-miterlimit:10;stroke-width:2px;}</style></defs><title>Features-127v-33x33</title><g id="Features"><path class="cls-1" d="M0 0h33v33h-33z"/><path class="cls-2" d="M27.8 5.2c-.63 4-2.89 10.44-8 14.19l-.58.43-.17.7-.84 3.35-1.91 1.53-.3-1.79-.36-1.61h-1.64a3.63 3.63 0 0 1-.51 0l-.1-.15a6.65 6.65 0 0 0-2.21-2.22l-.15-.1a3.61 3.61 0 0 1-.03-.53v-1.64l-1.61-.36-1.87-.37 1.59-1.89 3.37-.84.7-.17.43-.58c3.75-5.1 10.16-7.36 14.19-8m2.2-2.15c-3.55 0-12.88 2-18 9l-4 1-4.19 5 5.19 1c0 2.24.87 1.87 2 3s.76 2 3 2l1 5 5-4 1-4c7-5.12 9-14.45 9-18zM19.5 13a.5.5 0 1 1-.5.5.5.5 0 0 1 .5-.5m0-2a2.5 2.5 0 1 0 2.5 2.5 2.5 2.5 0 0 0-2.5-2.5z"/><path class="cls-3" d="M9 23l-5 5M11 25l-3 3M7 21l-3 3"/></g></svg>