<svg xmlns="http://www.w3.org/2000/svg" width="33" height="33" viewBox="0 0 33 33"><title>RecognitionServer-33x33</title><path d="M4.12 33h24.76a4.12 4.12 0 0 0 4.12-4.12v-5.79a20.89 20.89 0 0 0-3.66-6.25 10.6 10.6 0 0 0-1.7-1.53 13.74 13.74 0 0 0-1.94-1.21q-.35-.18-.72-.33c-.24-.1-.48-.19-.73-.27l-.74-.21-.74-.16a4.61 4.61 0 0 1 .41.44 4.36 4.36 0 0 1 .34.48 4.15 4.15 0 0 1 .26.52 4.33 4.33 0 0 1 .19.55v.44a6.2 6.2 0 0 1 .12 1.14 6.78 6.78 0 0 1-.09 1.2 7.79 7.79 0 0 1-.32 1.25 9.16 9.16 0 0 1-.55 1.29 11.52 11.52 0 0 1-1.34 2 14.43 14.43 0 0 1-1.85 1.87 17 17 0 0 1-2.18 1.69 18 18 0 0 1-2.62 1.27 22.06 22.06 0 0 1-7.41 1.53 15.12 15.12 0 0 1-6.15-1.1 10.73 10.73 0 0 1-1.58-.81v2a4.12 4.12 0 0 0 4.12 4.11zm12.59-13.46h.64a4.53 4.53 0 0 0 .69-.16 4.65 4.65 0 0 0 .65-.27 4.31 4.31 0 0 0 .59-.36 4.1 4.1 0 0 0 .51-.44 3.5 3.5 0 0 0 .4-.49 3 3 0 0 0 .27-.51 2.6 2.6 0 0 0 .15-.52 2.22 2.22 0 0 0 0-.51v-.47l-.06-.19-.07-.19-.08-.18a1.78 1.78 0 0 0-.16-.24 2 2 0 0 0-.2-.22 2.31 2.31 0 0 0-.24-.2l-.27-.17a2.82 2.82 0 0 0-.53-.23 3.1 3.1 0 0 0-.58-.13 3.77 3.77 0 0 0-.61 0 4.3 4.3 0 0 0-.64.06 4.4 4.4 0 0 0-.62.15 4.12 4.12 0 0 0-.59.24 4.17 4.17 0 0 0-.54.31 4.23 4.23 0 0 0-.49.39 3.64 3.64 0 0 0-.41.45 3.2 3.2 0 0 0-.3.49 2.86 2.86 0 0 0-.19.52 2.3 2.3 0 0 0-.07.54v.24a2.06 2.06 0 0 0 .09.45 2 2 0 0 0 .19.42 2.14 2.14 0 0 0 .29.37 2.57 2.57 0 0 0 .39.32l.28.16.31.13.33.1.35.07h.57zm12.17-19.54h-24.76a4.12 4.12 0 0 0-4.12 4.12v17.52a5.77 5.77 0 0 0 .56.81 7.37 7.37 0 0 0 3.21 2.16 12.38 12.38 0 0 0 4.76.66 17.91 17.91 0 0 0 5.64-1.21c.25-.09.5-.2.74-.31l.71-.35.68-.39.65-.42h-1.56l-.49-.07a8.8 8.8 0 0 1-2.74-.89 7 7 0 0 1-2-1.55 6.38 6.38 0 0 1-1.2-2 6.66 6.66 0 0 1-.41-2.26 7.38 7.38 0 0 1 0-.78 7.46 7.46 0 0 1 .12-.79c.05-.26.12-.53.21-.79s.18-.53.29-.8a13.51 13.51 0 0 1 1.21-2.24 15.49 15.49 0 0 1 1.59-2 17.27 17.27 0 0 1 1.91-1.75 18.81 18.81 0 0 1 2.19-1.48 19.57 19.57 0 0 1 2.19-1.09 19.91 19.91 0 0 1 4.74-1.35 19.75 19.75 0 0 1 2.45-.23 23 23 0 0 1 3 .1 21.58 21.58 0 0 1 3 .5l.71.19.85.3a4.12 4.12 0 0 0-4.13-3.61zm3.5 5.77a16.19 16.19 0 0 0-2.38-.82 17.38 17.38 0 0 0-2.45-.46 18.44 18.44 0 0 0-2.53-.12 15.11 15.11 0 0 0-2 .17 15.37 15.37 0 0 0-1.84.46 15.63 15.63 0 0 0-1.84.65 15.14 15.14 0 0 0-1.76.88 14.27 14.27 0 0 0-1.79 1.24 13.44 13.44 0 0 0-1.55 1.46 12 12 0 0 0-1.24 1.63 10.47 10.47 0 0 0-.92 1.85c-.07.19-.14.39-.19.58l-.13.58-.07.57a5.12 5.12 0 0 0 0 .56l.22-.29.24-.29.26-.28.28-.27a11.86 11.86 0 0 1 3.24-2.09 14 14 0 0 1 3.76-1.05 14.93 14.93 0 0 1 4 0 14 14 0 0 1 4.06 1.2 17 17 0 0 1 2.43 1.4 14.41 14.41 0 0 1 2.18 1.8l.62.66v-9.72z" fill="#c60c30" fill-rule="evenodd"/></svg>