<?xml version="1.0" encoding="utf-8"?>
<!-- Generator: Adobe Illustrator 21.0.2, SVG Export Plug-In . SVG Version: 6.00 Build 0)  -->
<svg version="1.1" id="Layer_1" xmlns="http://www.w3.org/2000/svg" xmlns:xlink="http://www.w3.org/1999/xlink" x="0px" y="0px"
	 viewBox="0 0 22 14" style="enable-background:new 0 0 22 14;" xml:space="preserve">
<style type="text/css">
	.st0{fill:#F90805;}
	.st1{fill:#FFF200;}
</style>
<g transform="scale(0.916666667, 0.875)">
<polygon class="st0" points="0,16 24,16 24,0 0,0 0,16 "/>
<path class="st1" d="M4,1.6l0.6,1.7h1.8l-1.4,1L5.4,6L4,5L2.6,6l0.5-1.7l-1.4-1h1.8L4,1.6z M8.8,7.2L8.2,7.4V8L7.9,7.5L7.3,7.7
	l0.3-0.5L7.3,6.7l0.6,0.2l0.3-0.5V7L8.8,7.2L8.8,7.2z M10.4,5.4L9.9,5.7l0.2,0.6L9.6,5.9L9.1,6.2l0.2-0.6L8.8,5.3h0.6l0.2-0.6
	l0.2,0.6L10.4,5.4z M10.2,2.7L9.9,3.2l0.4,0.5L9.7,3.5L9.3,4V3.4L8.8,3.2L9.3,3V2.4l0.4,0.5L10.2,2.7L10.2,2.7z M8.3,0.8v0.6
	l0.6,0.2L8.3,1.8v0.6L7.9,1.9L7.3,2.1l0.3-0.5L7.3,1.1l0.6,0.2L8.3,0.8z"/>
</g>
</svg>
