<svg xmlns="http://www.w3.org/2000/svg" width="35" height="24" viewBox="0 0 35 24"><title>flag-arabic-35x24</title><path fill="#fff" d="M.5.5h34v23h-34z"/><path d="M34 1v22h-33v-22h33m1-1h-35v24h35v-24z" fill="#afb9c3"/><path d="M31.9 10.3a14.8 14.8 0 0 1 .3-1.9l.2-2 .5 1a1.8 1.8 0 0 1 .1.6.8.8 0 0 1-.1.4c-.1.6-.1 1.1-.2 1.5s-.1.9-.1 1.3-.1.8-.1 1a5.2 5.2 0 0 0 .2 1.1l-.3.2-.4-1.1a2.8 2.8 0 0 1-.1-.9zM27.1 11.7l.2-1.1a7.8 7.8 0 0 1 .2-1.4 5.8 5.8 0 0 0 .1-1h-.1l-.2-.6c-.1-.1-.1-.4-.1-.7l.5-.3a.8.8 0 0 0 .2-.4v-.1h.2a4.5 4.5 0 0 1 .4 1.6l-.2.2-.4 2.7a4.1 4.1 0 0 1-.2 1v.6000000000000001a1.1 1.1 0 0 0 .5.9 2.1 2.1 0 0 0 1.4.4 1.2 1.2 0 0 0 .9-.3.8.8 0 0 0 .3-.7 3.1 3.1 0 0 0-.1-1 4.1 4.1 0 0 0-.6-1.1l.3-.2a5.9 5.9 0 0 1 .8 1.6 5.9 5.9 0 0 1 .2 1.4 1.7 1.7 0 0 1-.5 1.3 1.4 1.4 0 0 1-1.3.5 2.7 2.7 0 0 1-1.7-.6 2.2 2.2 0 0 1-.8-1.5zM22 15.5h1a5.9 5.9 0 0 0 2.6-.4 1.3 1.3 0 0 0 .7-1.2 2.2 2.2 0 0 0-.8-1.5 7 7 0 0 0-2.3-1.1 1.6 1.6 0 0 0-.3-.6 2.5 2.5 0 0 0-.2-.7l1.1.3 1 .4a1.2 1.2 0 0 0 .8-.5.6.6 0 0 0 .2-.5c0-.2-.2-.3-.6-.5h-2.1a1.9 1.9 0 0 1 .7-.8 1.9 1.9 0 0 1 1-.3l.7.2a.9.9 0 0 1 .5.3 3.9 3.9 0 0 1 .4.9 5.1 5.1 0 0 1 .2.9 1.1 1.1 0 0 1-.2.7 1.6 1.6 0 0 1-.4.7 5.4 5.4 0 0 1 .7 1.3 5.9 5.9 0 0 1 .2 1.4 2.4 2.4 0 0 1-2.7 2.5h-.5l-1.8-1.3zM17.6 11.5a3.6 3.6 0 0 1 .2-1.1 4.1 4.1 0 0 1 .5-.9l.3 1.5a1.8 1.8 0 0 0-.5.7 1.3 1.3 0 0 0-.1.6 2 2 0 0 0 .8 1.2l.9.8.6.2h.6l.7-.4.2.3a5 5 0 0 1-1.3.9l-.9.3a1.4 1.4 0 0 1-.9-.4l-.8-1a2.3 2.3 0 0 1-.3-.9zM11.3 11.5a4.1 4.1 0 0 1 .1-1.2 2.5 2.5 0 0 1 .4-1.1l.5 1.3-.4.5-.2.6h4.5l.4-.3a1.4 1.4 0 0 0 .2-.6.9.9 0 0 0-.1-.5 1.3 1.3 0 0 0-.3-.7l.3-.2.4.7a3.5 3.5 0 0 1 .1.6.6.6 0 0 1 .1.4v.4a1.6 1.6 0 0 1-.2 1 1.6 1.6 0 0 1-.7.7h-5.1zm2.9 2l.6 1.3-1.1.7-.6-1.2zM5.8 9.8a.5.5 0 0 1 .5-.3.9.9 0 0 1 .6.3 2.2 2.2 0 0 1 .7.9 2.5 2.5 0 0 1 .4.7 2 2 0 0 1 .1.7c0 .3 0 .6-.2.7s-.5.3-.9.3h-.6l.2.3.5.2.5.3.7.2h.8a1 1 0 0 0 1-1.1 5.1 5.1 0 0 0-.2-.9 6.1 6.1 0 0 0-.5-1.1l.2-.2a8 8 0 0 1 .8 1.7 5.3 5.3 0 0 1 .1 1.3c0 1.1-.5 1.6-1.4 1.6l-1.2-.2-1.2-.6a2.6 2.6 0 0 1-.7-1 4.9 4.9 0 0 1-.1-1.2c0-.2 0-.3.1-.4h1.4a.2.2 0 0 0 .2-.2l-.5-.5c-.3-.3-.5-.4-.7-.4h-.3l-.2.5-.2-.5v-.5c0-.3 0-.5.1-.6zm1.9 5.6l.3.7.7-.4.4.7-.7.5-.4-.7-.7.4-.4-.8zM2.1 10.3l.6-.7.6-.4.4-.3a1.6 1.6 0 0 1 .3.6l.2.6h-.2a3.7 3.7 0 0 1 .4 1.1 2.8 2.8 0 0 1 .1.9 1.1 1.1 0 0 1-.2.8.6.6 0 0 1-.6.3l-.9-.2a1.9 1.9 0 0 1-.6-.7l-.2-.6v-.7a1.5 1.5 0 0 1 .1-.7zm1-4.2l.4.9.7-.4.5 1.1-.9.5-.4-.8-.6.4-.6-1.1zm-.1 5.6h.9a.4.4 0 0 0 .1-.3 1.6 1.6 0 0 0-.3-.9l-.7.5-.3.5z"/></svg>