<svg xmlns="http://www.w3.org/2000/svg" width="35" height="24" viewBox="0 0 35 24"><title>flag-spanish-35x24</title><path fill="#f90805" d="M0 18h35v6h-35v-6z"/><path fill="#fed447" d="M0 6h35v12h-35v-12z"/><path fill="#f90805" d="M0 0h35v6h-35v-6z"/><path fill="#f8ce00" d="M7.4 11.1h1.1v-.3h-1.1v.3zM15.6 11.1h-1.1v-.3h1.1v.3z"/><path d="M7.4 11.1h1.1v-.3h-1.1v.3zm1.1 0h-1.1v-.3h1.1v.3zM15.6 11.1h-1.1v-.3h1.1v.3zm-1.1 0h1.1v-.3h-1.1v.3z"/><path d="M7.5 11.3h.9a.1.1 0 0 1-.1-.1h-.7a.1.1 0 0 1-.1.1zM15.5 11.3h-.9a.1.1 0 0 0 .1-.1h.7a.1.1 0 0 0 .1.1z" fill="#f8ce00"/><path d="M7.5 11.2a.1.1 0 0 0 .1-.1h-.1zM15.5 11.2a.1.1 0 0 1-.1-.1h.1z"/><path d="M7.6 11.3zM15.4 11.3z" fill="#f8ce00"/><path d="M7.6 11.3zM15.4 11.3zM8.4 11.3zM14.6 11.3zM8.4 11.3zM14.6 11.3zM7.6 11.3zM15.4 11.3z"/><path d="M7.6 11.1zM15.4 11.1z" fill="#f8ce00"/><path d="M7.6 11.1zM15.4 11.1zM8.4 11.1zM14.6 11.1zM8.4 11.1zM14.6 11.1zM7.6 11.1zM15.4 11.1z"/><path d="M8.7 16.3zM14.3 16.3z" fill="#3553ec"/><path d="M8.7 16.3h-.8a.1.1 0 0 1-.1-.1h-.4a.1.1 0 0 1-.1.1h.6a.1.1 0 0 0 .1.1.1.1 0 0 1 .1-.1h.6zM14.3 16.3h.8a.1.1 0 0 0 .1-.1h.4a.1.1 0 0 0 .1.1h-.6a.1.1 0 0 1-.1.1.1.1 0 0 0-.1-.1h-.6z"/><path d="M8.7 16.4h-1.3c0-.1.1-.1.2-.1h.7c.1 0 .2 0 .2.1h.2zM14.3 16.4h1.3c0-.1-.1-.1-.2-.1h-.7c-.1 0-.2 0-.2.1h-.2z" fill="#d7dce1"/><path d="M8.7 16.4zM14.3 16.4z"/><path d="M8.7 16.5h-.2c0-.1-.1-.1-.2-.1h-.7c-.1 0-.2 0-.2.1h1.3zM14.3 16.5h.2c0-.1.1-.1.2-.1h.7c.1 0 .2 0 .2.1h-1.3z" fill="#3553ec"/><path d="M8.7 16.5h-.3c0-.1 0-.1-.1-.1h-.6a.1.1 0 1 0-.2 0h-.1c0-.1 0-.1.1-.1h.9c.1 0 .1 0 .1.1h.2zM14.3 16.5h.3c0-.1 0-.1.1-.1h.6a.1.1 0 1 1 .2 0h.1c0-.1 0-.1-.1-.1h-.9c-.1 0-.1 0-.1.1h-.2z"/><path d="M8.7 16.8h-.6a.1.1 0 0 1-.1.1c-.1 0-.2 0-.2-.1h-.4c0 .1-.1.1-.2.1v-.2h1.5v.2zM14.3 16.8h.6a.1.1 0 0 0 .1.1c.1 0 .2 0 .2-.1h.4c0 .1.1.1.2.1v-.2h-1.5v.2z" fill="#d7dce1"/><path d="M7.2 16.7h.3c0-.1 0-.1.1-.1a.1.1 0 0 1 .1.1h.6c.1 0 .1 0 .1.1h-1.2zM15.8 16.7h-.3c0-.1 0-.1-.1-.1a.1.1 0 0 0-.1.1h-.6c-.1 0-.1 0-.1.1h1.2z"/><path d="M8.7 16.9h-1.5c.1 0 .2 0 .2-.1h.4c0 .1.1.1.2.1a.1.1 0 0 0 .1-.1h.6zM14.3 16.9h1.5c-.1 0-.2 0-.2-.1h-.4c0 .1-.1.1-.2.1a.1.1 0 0 1-.1-.1h-.6z" fill="#3553ec"/><path d="M8.7 16.9zM14.3 16.9zM7.2 16.8h.1a.1.1 0 0 1 .1-.1h.5c0 .1 0 .1.1.1h.6a.1.1 0 0 1-.1-.1h-.6c-.1 0-.1 0-.1-.1h-.4c0 .1 0 .1-.1.1zM15.8 16.8h-.1a.1.1 0 0 0-.1-.1h-.5c0 .1 0 .1-.1.1h-.6a.1.1 0 0 0 .1-.1h.6c.1 0 .1 0 .1-.1h.4c0 .1 0 .1.1.1z"/><path d="M7.5 15.7zM15.5 15.7z" fill="#f8ce00"/><path d="M7.5 15.7zM15.5 15.7zM7.4 15.9zM15.6 15.9zM8.5 15.9h-.1c-.1 0-.1 0-.1-.1h.2zM14.5 15.9h.1c.1 0 .1 0 .1-.1h-.2z"/><path d="M7.6 15.7zM15.4 15.7z" fill="#f8ce00"/><path d="M7.6 15.7zM15.4 15.7zM8.4 15.7c-.1 0-.1 0-.1-.1zM14.6 15.7c.1 0 .1 0 .1-.1zM8.4 15.7h-.8c-.1 0-.1 0-.1-.1h.9zM14.6 15.7h.8c.1 0 .1 0 .1-.1h-.9zM7.6 15.7c-.1 0-.1 0-.1-.1h.1zM15.4 15.7c.1 0 .1 0 .1-.1h-.1z"/><path fill="#f8ce00" d="M7.4 16.2h1.1v-.3h-1.1v.3zM15.6 16.2h-1.1v-.3h1.1v.3z"/><path d="M7.4 16.2h1.1v-.3h-1.1v.3zm1.1 0h-1.1v-.3h1.1v.3zM15.6 16.2h-1.1v-.3h1.1v.3zm-1.1 0h1.1v-.3h-1.1v.3z"/><path d="M7.3 14.6c-.1 0-.2.1-.1.1.1.1.2.2.1.3a.4.4 0 0 0 .1-.3c0-.1 0-.2-.1-.2zM15.7 14.6h.1c-.1.1-.2.2-.1.3a.4.4 0 0 1-.1-.3c0-.1 0-.2.1-.2z" fill="#ac1518"/><path d="M7.3 14.6v.4zM15.7 14.6v.4z" fill="none"/><path fill="#e4e4e5" d="M7.6 15.6h.7v-4.2h-.7v4.2zM15.4 15.6h-.7v-4.2h.7v4.2z"/><path d="M8.1 11.4v4.2"/><path d="M7.6 15.6h.7v-4.2h-.7v4.2zm.7 0h-.7v-4.2h.8v4.2zM15.4 15.6h-.7v-4.2h.7v4.2zm-.7 0h.7v-4.2h-.8v4.2z"/><path d="M9.1 13l-.8-.2h-.3c-.5.1-.8.3-.8.4l-.2-.3c0-.2.4-.4.9-.5h.4l.8.2v.4zM13.9 13l.8-.2h.3c.5.1.8.3.8.4l.2-.4c0-.2-.4-.4-.9-.5h-.4l-.8.2v.5z" fill="#b72025"/><path d="M9.1 13h-1.2l-.5.2c-.1.1-.2.1-.2.2l-.2-.5.2-.3.6-.2-.6.2-.2.3.2.4a.2.2 0 0 1 .2-.2l.5-.2h1.2zM13.9 13h1.2l.5.2c.1.1.2.1.2.2l.2-.4-.2-.3-.6-.2.6.2.2.3-.2.4a.2.2 0 0 0-.2-.2l-.5-.2h-1.2z"/><path d="M7.6 13.5l-.4-.2c0-.1 0-.1.2-.2h.2v.4zM15.4 13.5l.4-.2c0-.1 0-.1-.2-.2h-.2v.4z" fill="#ac1518"/><path d="M7.6 13.5h-.3v-.2h.4zM15.4 13.5h.3v-.2h-.4z"/><path d="M8.3 13.2c.2 0 .3 0 .3.1.1.1-.1.2-.3.3v-.4zM14.7 13.2c-.2 0-.3 0-.3.1-.1.1.1.2.3.3v-.4z" fill="#ac1518"/><path d="M8.3 13.2h.2a.1.1 0 0 1 .1.1h-.3zM14.7 13.2h-.2a.1.1 0 0 0-.1.1h.3z"/><path d="M7.1 14.3l.5-.3.4-.2c.4-.2.7-.4.6-.5v.4c0 .1-.3.3-.6.5l-.5.2-.4.3v-.4zM15.9 14.3l-.5-.3-.4-.2c-.4-.2-.7-.4-.6-.5v.4c0 .1.3.3.6.5l.5.2.4.3v-.4z" fill="#b72025"/><path d="M7.1 14.3a.1.1 0 0 1 .1-.1l.4-.2.3-.2c.1 0 .2 0 .2-.1l.4-.2v-.2c.1 0 0 .1-.1.2l-.4.2a.1.1 0 0 1-.1.1l-.3.2-.4.2a.1.1 0 0 0-.1.1zM15.9 14.3a.1.1 0 0 0-.1-.1l-.4-.2-.3-.2c-.1 0-.2 0-.2-.1l-.4-.2v-.2c-.1 0 0 .1.1.2l.4.2a.1.1 0 0 0 .1.1h.1l.3.2.4.2a.1.1 0 0 1 .1.1zM8.6 13.3c.1 0 .1.4.1.4s0 .1-.1.2l-.4.3h-.3l-.3.2h-.5c0-.1.1-.1.2-.2l.2-.2h.7l.4-.2.1-.2v-.4zM14.4 13.3c-.1 0-.1.4-.1.4s0 .1.1.2l.4.3h.3l.3.2h.5c0-.1-.1-.1-.2-.2l-.2-.2h-.7l-.4-.2-.1-.2v-.4z"/><path d="M11.5 10.7l-1.4-.2 1.4-.2 1.4.2-1.4.2z" fill="#b72025"/><path d="M11.5 10.7zm-.7-.1z"/><path d="M11.5 17a3.4 3.4 0 0 1-1.7-.5 1.2 1.2 0 0 1-.7-1.1v-1.7h4.8v1.7a1.4 1.4 0 0 1-.6 1.1 4.1 4.1 0 0 1-1.8.5z" fill="#e4e4e5"/><path d="M11.5 17h-.9a2 2 0 0 1-.8-.4 1 1 0 0 1-.5-.4 1.4 1.4 0 0 1-.2-.7 1.4 1.4 0 0 0 .2.7 1 1 0 0 0 .5.4 2 2 0 0 0 .8.4h1.8l.9-.4.4-.4a1.4 1.4 0 0 0 .2-.7 1.4 1.4 0 0 1-.2.7l-.4.4-.9.4z"/><path fill="#e4e4e5" d="M11.5 13.7h2.4v-3h-2.4v3z"/><path d="M11.5 13.6h2.4v-2.9h-2.4v2.9zm2.4.1h-2.4v-3h2.4v3z"/><path d="M11.5 15.4a1.2 1.2 0 0 1-1.2 1.3 1.3 1.3 0 0 1-1.2-1.3v-1.7h2.4v1.7z" fill="#f8ce00"/><path fill="#b72025" d="M9.1 13.7h2.4v-3h-2.4v3z"/><path d="M9.1 13.6h2.4v-2.9h-2.4v2.9zm2.4.1h-2.4v-3h2.4v3z"/><path d="M13.9 13.7v1.7a1.2 1.2 0 1 1-2.4 0v-1.7z" fill="#b72025"/><path d="M9.1 15.4v-1.7h4.8v1.7a1.2 1.2 0 0 1-.3.9 1.8 1.8 0 0 1-.9.4 1.8 1.8 0 0 1-.9-.4 1.5 1.5 0 0 1-.3-.7 1.5 1.5 0 0 1-.3.7 1.8 1.8 0 0 1-.9.4 1.2 1.2 0 0 1-.8-.4 1 1 0 0 1-.4-.9zm2.4-1.7v1.7a1.3 1.3 0 0 0 .4.9 1.2 1.2 0 0 0 .8.4 1.2 1.2 0 0 0 .8-.4 1 1 0 0 0 .4-.9v-1.7zm0 1.7v-1.7h-2.4v1.7a1.3 1.3 0 0 0 .4.9 1.2 1.2 0 0 0 .8.4 1.2 1.2 0 0 0 .8-.4 1 1 0 0 0 .4-.9z"/><path d="M10.7 13.6a.9.9 0 0 1 .8-.9.9.9 0 0 1 .8.9.9.9 0 0 1-.8 1 .9.9 0 0 1-.8-1z" fill="#b72025"/><path d="M11 13a.7.7 0 0 0-.3.6.9.9 0 0 0 .3.7.5.5 0 0 0 .5.3l.6-.3a1.4 1.4 0 0 0 .2-.7 1.1 1.1 0 0 0-.2-.6l-.6-.3a.5.5 0 0 0-.5.3z"/><path d="M11 13.6c0-.4.2-.7.5-.7a.7.7 0 0 1 0 1.4c-.3 0-.5-.3-.5-.7z" fill="#043cb2"/><path d="M8.4 11.2zM14.6 11.2zM7.2 16.3v.2-.2zM15.8 16.3v.2-.2zM8.7 16.4v.2zM14.3 16.4v.2zM13.9 9.2v-.6l-.2-.2h-.2l-.5-.3h-1.4c0-.1 0-.1.1-.1v-.9h-.4v.2c.1 0 .1 0 .1.1h-1.5l-.5.2h-.1l-.2.2a.4.4 0 0 0-.1.3v.2h.2c-.1 0-.1.1-.1.2h.4l.2.3h3.6l.2-.2h.4v.7zm-3.8-.9h-.6l-.2.7h-.1l.3-.2h.6zm1.2-.1v.2h-.9c-.1 0-.1-.1-.1-.2l.2-.3h.8zm1.3.4h-.9v-.3h.8l.2.3h-.1zm1.2.7zm-.1-.4l-.2-.2.2.2z"/><path d="M8.5 10.4h-.6a.1.1 0 0 0 .1.1h.5zm-.5-.3zm0 0zm-.1 0zm0 0zm-.3.6zm0 0zm-.1-.2zm0 0zm.1.1zm0 0zm.1-.3zm0-.1zm0 0zm0 0zm0 .1zm0 0zm0-.1zm.2.4zm0-.4zm0-.1zm0 0zm.1 0zm0 0zm.2.1zm0 0zm.1.5zm0 0zm-.1-.4zm.1.3zm0 0zm.1-.1zm0 0zm.1-.1zm-.1 0zm-.1-.1zm0 0zm0-.1zm0 0zM15.5 10.4h-.5a.1.1 0 0 0 .1-.1h.4zm-.4-.3zm0 0zm-.1 0zm0 0zm-.3.6zm-.2-.3zm.1.1zm0 0zm.1.1zm0 0zm.1-.3zm0-.1zm-.1 0zm0 0zm0 .1zm0 0zm.1-.1zm.2 0zm0-.1zm0 0zm.1 0zm0 0zm0 .5zm.2-.3zm0-.1zm.1.5zm-.1-.4zm.1.3zm0 0zm.1-.1zm0 0zm0-.1zm-.2-.1zm0 0zm0-.1zm0 0z" fill="#231f20"/><path d="M34 1v22h-33v-22h33m1-1h-35v24h35v-24z" fill="#afb9c3"/></svg>