<svg xmlns="http://www.w3.org/2000/svg" width="35" height="24" viewBox="0 0 35 24">
  <title>flag-korean-35x24</title>
  <g>
    <g>
      <polygon points="0 0 35 0 35 24 0 24 0 0 0 0" fill="#f4f4f7"/>
      <path d="M24.2,3.7l1.5,2.4-.8.5L23.3,4.3l.9-.6Zm.4,16.9,1.5-2.4.8.6-1.5,2.3-.8-.5Zm1.8-2.8,1.5-2.4.9.6-1.6,2.4-.8-.6Zm-.6,3.6,1.6-2.3.8.5L26.7,22l-.9-.6Zm1.8-2.8,1.6-2.3.8.6-1.5,2.3-.9-.6ZM7.5,8.9l3.3-5.2.9.6L8.3,9.4l-.8-.5ZM6.3,8,9.6,2.9l.8.5L7.1,8.6,6.3,8ZM5,7.1,8.3,2l.9.6L5.8,7.7,5,7.1ZM23.3,19.7l1.6-2.3.8.5-1.5,2.4-.9-.6ZM26,6.5l1.5,2.4-.8.5L25.1,7.1l.9-.6Zm-.6-3.6L28.8,8l-.9.6L24.6,3.4l.8-.5ZM26.7,2l1.5,2.4-.8.5L25.8,2.6l.9-.6Zm1.8,2.8L30,7.1l-.8.6L27.6,5.4l.9-.6ZM8.3,14.6l3.4,5.1-.9.6L7.5,15.1l.8-.5Zm-1.2.8,1.5,2.4-.8.6L6.3,16l.8-.6Zm1.8,2.8,1.5,2.4-.8.5L8.1,18.8l.8-.6ZM5.8,16.3l3.4,5.1-.9.6L5,16.9l.8-.6Zm19.3.6,1.6-2.3.8.5L26,17.5l-.9-.6Z" fill="#231f20"/>
      <path d="M12.5,8.7a6,6,0,0,1,10,6.6,3,3,0,0,0-.8-4.1,2.9,2.9,0,0,0-4.2.8,2.9,2.9,0,0,1-4.2.8,3,3,0,0,1-.8-4.1Z" fill="#f90805"/>
      <path d="M12.5,8.7a6,6,0,0,0,10,6.6,3,3,0,0,0-.8-4.1,2.9,2.9,0,0,0-4.2.8,2.9,2.9,0,0,1-4.2.8,3,3,0,0,1-.8-4.1Z" fill="#014eaa"/>
    </g>
    <path d="M34,1V23H1V1H34m1-1H0V24H35V0Z" fill="#afb9c3"/>
  </g>
</svg>
