<svg xmlns="http://www.w3.org/2000/svg" width="35" height="24" viewBox="0 0 35 24">
  <title>flag-turkish-35x24</title>
  <g>
    <polygon points="0 0 35 0 35 24 0 24 0 0 0 0" fill="#f90805"/>
    <path d="M11.2,6a6.1,6.1,0,0,1,5.2,2.8,4.9,4.9,0,0,0-3.7-1.6,4.8,4.8,0,1,0,0,9.6,4.9,4.9,0,0,0,3.7-1.6A6.1,6.1,0,0,1,11.2,18,6.1,6.1,0,0,1,5,12a6.1,6.1,0,0,1,6.2-6ZM22,13.8l-2.1-.7-1.4,1.8V12.7L16.4,12l2.1-.7V9.1l1.4,1.8,2.1-.7L20.7,12,22,13.8Z" fill="#fff"/>
    <path d="M34,1V23H1V1H34m1-1H0V24H35V0Z" fill="#afb9c3"/>
  </g>
</svg>
