<?xml version="1.0" encoding="utf-8"?>
<!-- Generator: Adobe Illustrator 21.0.2, SVG Export Plug-In . SVG Version: 6.00 Build 0)  -->
<svg version="1.1" id="Layer_1" xmlns="http://www.w3.org/2000/svg" xmlns:xlink="http://www.w3.org/1999/xlink" x="0px" y="0px"
	 viewBox="0 0 22 14" style="enable-background:new 0 0 22 14;" xml:space="preserve">
<style type="text/css">
	.st0{fill:#46B61C;}
	.st1{fill:#FCE63F;}
	.st2{fill:#014EAA;}
	.st3{fill:#FFFFFF;}
</style>
<g transform="scale(0.916666667, 0.875)">
<polygon class="st0" points="0,0 0,16 24,16 24,0 0,0 "/>
<polygon class="st1" points="22,8 12,14.4 2,8 12,1.6 22,8 "/>
<path class="st2" d="M8,7c-0.6,2.2,0.7,4.5,2.9,5.1s4.5-0.7,5.1-2.9l0,0c-1.1-1-2.4-1.7-3.8-2.1C10.8,6.8,9.4,6.8,8,7z M12.3,6.6
	c1.4,0.4,2.7,1.1,3.8,2c0-0.2,0-0.4,0-0.6c0.1-2.3-1.7-4.2-4-4.3c-1.7-0.1-3.3,1-4,2.6C9.5,6.1,10.9,6.2,12.3,6.6L12.3,6.6z"/>
<path class="st3" d="M12.3,6.6C11,6.2,9.6,6.1,8.2,6.3C8.1,6.5,8,6.8,8,7c1.4-0.2,2.8-0.2,4.2,0.2c1.4,0.4,2.7,1.1,3.8,2
	c0.1-0.2,0.1-0.4,0.1-0.6C15,7.7,13.7,7,12.3,6.6L12.3,6.6z"/>
</g>
</svg>
