<?xml version="1.0" encoding="utf-8"?>
<!-- Generator: Adobe Illustrator 21.0.2, SVG Export Plug-In . SVG Version: 6.00 Build 0)  -->
<svg version="1.1" id="Layer_1" xmlns="http://www.w3.org/2000/svg" xmlns:xlink="http://www.w3.org/1999/xlink" x="0px" y="0px"
	 viewBox="0 0 22 14" style="enable-background:new 0 0 22 14;" xml:space="preserve">
<style type="text/css">
	.st0{fill:#0437A0;}
	.st1{fill:#FBF9F8;}
	.st2{fill:#F90805;}
</style>
<g transform="scale(0.916666667, 0.875)">
<polygon class="st0" points="0,0 12,0 24,0 24,16 12,16 0,16 0,0 "/>
<polygon class="st1" points="24,14 15,8 24,2 24,0 21,0 12,6 3,0 0,0 0,2 9,8 0,14 0,16 3,16 12,10 21,16 24,16 24,14 "/>
<polygon class="st2" points="24,15.3 13.1,8 24,0.7 24,0 22.9,0 12,7.3 1.1,0 0,0 0,0.7 10.9,8 0,15.3 0,16 1.1,16 12,8.7 22.9,16 
	24,16 24,15.3 "/>
<polygon class="st1" points="10,0 14,0 14,5.4 24,5.4 24,10.6 14,10.6 14,16 10,16 10,10.6 0,10.6 0,5.4 10,5.4 10,0 "/>
<polygon class="st2" points="13.2,0 13.2,6.3 24,6.3 24,9.6 13.2,9.6 13.2,16 10.8,16 10.8,9.6 0,9.6 0,6.3 10.8,6.3 10.8,0 13.2,0 
	"/>
</g>
</svg>
