<svg id="Layer_1" data-name="Layer 1" xmlns="http://www.w3.org/2000/svg" viewBox="0 0 33 33" width="33" height="33"><title>FlexiCapture-33x33</title><rect width="33" height="33" rx="5" ry="5" fill="#fff"/><path d="M22.7,27H21.35a54.65,54.65,0,0,0-8.12-3.82,26.5,26.5,0,0,0-6.09-1.5,12.8,12.8,0,0,0-4.2.18A7.69,7.69,0,0,0,.11,23.12L0,23.2v5.67A4.14,4.14,0,0,0,4.13,33H28.88A4.14,4.14,0,0,0,33,28.88V19.8Z" fill="#c60c30" fill-rule="evenodd"/><path d="M6.83,19.11a26.62,26.62,0,0,1,6.55,1.2,56,56,0,0,1,9.38,3.91L33,18V15.63l-9.51,5.18-.21-.1A55.57,55.57,0,0,0,13.07,17a25.39,25.39,0,0,0-6.71-.79A13.07,13.07,0,0,0,2,17.05a9.43,9.43,0,0,0-2,1.06v2.6a9,9,0,0,1,2.32-1.09A13.37,13.37,0,0,1,6.83,19.11Z" fill="#c60c30"/><path d="M6,13.54a26,26,0,0,1,7.2.36,56.12,56.12,0,0,1,11.11,3.33l.06,0,8.68-4V11.08l-8.49,3C11,8.3,3.24,11,0,13v2.49a10.94,10.94,0,0,1,1.26-.72A14.07,14.07,0,0,1,6,13.54Z" fill="#c60c30"/><path d="M25.18,10.14,33,8.22V4.13A4.14,4.14,0,0,0,28.88,0H4.13A4.14,4.14,0,0,0,0,4.13v6.56A22,22,0,0,1,9.36,7.4C16.46,6.43,25,10.05,25.18,10.14Z" fill="#c60c30"/></svg>