<svg xmlns="http://www.w3.org/2000/svg" viewBox="0 0 23 15"><defs><style>.cls-1{fill:#fff;}</style></defs><title>Common-049w-23x15</title><g id="Слой_2" data-name="Слой 2"><g id="Icons"><g id="_047" data-name="047"><path class="cls-1" d="M0,7A7,7,0,0,1,6.77,0,8,8,0,0,1,11.9,1.87c-.58.67-1.18,1.34-1.81,2A4.83,4.83,0,0,0,5.87,3,4.8,4.8,0,0,0,3,9a4.44,4.44,0,0,0,6,2.86A3.88,3.88,0,0,0,11,9C9.63,9,8.36,9,7,9c0-.85,0-1.15,0-2h7a8.23,8.23,0,0,1-1.48,5.44,6.83,6.83,0,0,1-7.7,2.16C2,13.63,0,10.14,0,7Z"/><polygon class="cls-1" points="23 6 21 6 21 4 19 4 19 6 17 6 17 8 19 8 19 10 21 10 21 8 23 8 23 6"/></g></g></g></svg>