<svg xmlns="http://www.w3.org/2000/svg" viewBox="0 0 19 19"><defs><style>.cls-1{fill:#fff;}</style></defs><title>in</title><g id="Layer_2" data-name="Layer 2"><g id="Layer_1-2" data-name="Layer 1"><path class="cls-1" d="M17.59,0H1.4A1.39,1.39,0,0,0,0,1.37V17.63A1.39,1.39,0,0,0,1.4,19H17.59A1.39,1.39,0,0,0,19,17.63V1.37A1.39,1.39,0,0,0,17.59,0Zm-12,16.19H2.81V7.12H5.63ZM4.22,5.88A1.63,1.63,0,1,1,5.86,4.25,1.63,1.63,0,0,1,4.22,5.88Zm12,10.31H13.38V11.78c0-1.05,0-2.4-1.47-2.4s-1.69,1.15-1.69,2.33v4.49H7.4V7.12h2.7V8.36h0A3,3,0,0,1,12.81,6.9c2.85,0,3.38,1.88,3.38,4.32Z"/></g></g></svg>