<svg xmlns="http://www.w3.org/2000/svg" viewBox="0 0 95 27"><title>logo-small</title><g id="Layer_2" data-name="Layer 2"><g id="Layer_1-2" data-name="Layer 1"><path d="M27,16c1,0,3-.5,3,3s-2,3-3,3H26V16ZM27,5c2,0,2.5,1,2.5,3S29,11,27,11H26V5ZM20,0V27h9c6,0,7-4,7-7,0-2.84-.78-6-4-7a6.39,6.39,0,0,0,4-6c0-6-5-7-8-7Z" fill="#c60c30"/><path d="M45,16c1,0,3-.5,3,3s-2,3-3,3H44V16ZM45,5c2,0,2.5,1,2.5,3S47,11,45,11H44V5ZM38,0V27h9c6,0,7-4,7-7,0-2.84-.78-6-4-7a6.39,6.39,0,0,0,4-6c0-6-5-7-8-7Z" fill="#c60c30"/><path d="M66,0s-2.17,9.16-2.72,10.82C62.76,9.15,61,0,61,0H55s5,16.91,5,17V27h6V17L72,0Z" fill="#c60c30"/><path d="M84,0s-2.17,9.16-2.72,10.82C80.76,9.15,79,0,79,0H73s5,16.91,5,17V27h6V17L90,0Z" fill="#c60c30"/><path d="M8,17,9.5,8,11,17Zm5.5,10H19L13,0H6L0,27H5.5L7,21.5h5Z" fill="#c60c30"/><path d="M93,0a2,2,0,0,1,2,2,2,2,0,1,1-2-2Zm0,3.7A1.66,1.66,0,0,0,94.62,2a1.62,1.62,0,1,0-3.24,0A1.65,1.65,0,0,0,93,3.7ZM92.27,1h.88a.57.57,0,0,1,.66.58.46.46,0,0,1-.34.46h0c.26.05.27.28.29.48s0,.37.08.47h-.39c-.07-.08-.06-.13-.07-.46,0-.18,0-.37-.44-.37h-.3V3h-.37Zm.37.9h.43c.31,0,.37-.18.37-.32s-.17-.3-.4-.3h-.39Z" fill="#c60c30"/></g></g></svg>