<svg xmlns="http://www.w3.org/2000/svg" width="37" height="33" viewBox="0 0 37 33"><title>ScreenshotReader-33x37</title><g id="Layer_2" data-name="Layer 2"><g id="Layer_3" data-name="Layer 3"><rect width="37" height="33" fill="none"/><path d="M36.3,18,33,3.4h0A4.1,4.1,0,0,0,28.9,0H4.1A4,4,0,0,0,0,4H0V28.9A4,4,0,0,0,4,33H28.9A4,4,0,0,0,33,29h0V19.2l2.5.5C36.2,19.8,36.6,19.2,36.3,18Z" fill="#c60c30"/><path d="M32,6l3,12-4-1a24.1,24.1,0,0,1-7,10c-4,4-8,5-14,5H7l1-1a13.4,13.4,0,0,0,8-2c2.7-1.8,2.6-2,5-5a34.5,34.5,0,0,0,5-9l-4-2Z" fill="#fff"/><path d="M7,31H4a2.3,2.3,0,0,1-2-2V4A2.3,2.3,0,0,1,4,2H29c1,0,2,1,2,3.2l1-.7C32,3,31,1,28.9,1H4.1A3.2,3.2,0,0,0,1,4.2V28.9A3.1,3.1,0,0,0,4.1,32H9L8,31Z" fill="#fff"/><path d="M31,28.6A3,3,0,0,1,28.7,31H20.5L18,32H28.7A3.4,3.4,0,0,0,32,28.6h0V19l-1,2.5Z" fill="#fff"/><path d="M10.2,4H6.3A2.3,2.3,0,0,0,4,6.3H4v3.9c0,.4.1.8.5.8s.5-.4.5-.8V6.3A1.4,1.4,0,0,1,6.3,5h3.9c.4,0,.8-.1.8-.5S10.6,4,10.2,4Z" fill="#fff"/></g></g></svg>