<svg xmlns="http://www.w3.org/2000/svg" width="27" height="17" viewBox="0 0 27 17"><defs><style>.cls-1{fill:#fff;}</style></defs><title>Social-004w-27x17</title><g id="_004"><path class="cls-1" d="M0 8.05a8.1 8.1 0 0 1 7.69-8.05 9 9 0 0 1 5.82 2.12c-.66.76-1.34 1.52-2.06 2.22-1.42-.9-3.13-1.59-4.79-1a5.44 5.44 0 0 0-3.31 6.86 5.06 5.06 0 0 0 6.76 3.28c2.89-1.48 2.89-2.48 2.89-2.48h-5v-3h8a9.24 9.24 0 0 1-1.8 6.1 7.76 7.76 0 0 1-8.74 2.44c-3.2-1.1-5.46-4.93-5.46-8.49zM27 8h-3v-3h-3v3h-3v3h3v3h3v-3h3v-3z"/></g></svg>