<svg xmlns="http://www.w3.org/2000/svg" width="17" height="17" viewBox="0 0 17 17"><title>Special-032-17x17</title><g id="Layer_2" data-name="Layer 2"><g id="Special"><g id="_031" data-name="031"><rect width="17" height="17" fill="none"/><path d="M8.5,2C12,2,15,4.3,15,7a6.4,6.4,0,0,1-1.4,3.6l-.8.8.2,1-1.2-.5-.7-.3-.7.2h-.1A2.7,2.7,0,0,1,9,12C5.4,12,2,9.6,2,7S5,2,8.5,2m0-2C3.8,0,0,3.2,0,7s4.3,7,9,7a4.2,4.2,0,0,0,2-.3L16,16l-1-4a7.9,7.9,0,0,0,2-5c0-3.8-3.8-7-8.5-7Z" fill="#afb9c3"/><polygon points="12 4 5 4 5 6 12 6 12 4 12 4" fill="#afb9c3"/><polygon points="12 8 5 8 5 10 12 10 12 8 12 8" fill="#afb9c3"/></g></g></g></svg>