<?xml version="1.0" encoding="UTF-8" standalone="no"?>
<!DOCTYPE svg PUBLIC "-//W3C//DTD SVG 1.1//EN" "http://www.w3.org/Graphics/SVG/1.1/DTD/svg11.dtd">
<svg version="1.1" xmlns="http://www.w3.org/2000/svg" xmlns:xlink="http://www.w3.org/1999/xlink" preserveAspectRatio="xMidYMid meet" viewBox="0 0 17 17" width="17" height="17"><defs><path d="M17 0C17 0 17 0 17 0C17 10.2 17 15.87 17 17C17 17 17 17 17 17C6.8 17 1.13 17 0 17C0 17 0 17 0 17C0 6.8 0 1.13 0 0C0 0 0 0 0 0C10.2 0 15.87 0 17 0Z" id="a5dhw4vol"></path><path d="M9.93 0.3L10.57 0.65L11.16 1.13L11.69 1.73L12.14 2.42L12.5 3.2L12.77 4.07L12.94 5.01L13 6L13.8 6L13.99 6.02L14.18 6.06L14.35 6.13L14.51 6.23L14.65 6.35L14.77 6.49L14.87 6.65L14.94 6.82L14.98 7.01L15 7.2L15 15.8L14.98 15.99L14.94 16.18L14.87 16.35L14.77 16.51L14.65 16.65L14.51 16.77L14.35 16.87L14.18 16.94L13.99 16.98L13.8 17L3.2 17L3.01 16.98L2.82 16.94L2.65 16.87L2.49 16.77L2.35 16.65L2.23 16.51L2.13 16.35L2.06 16.18L2.02 15.99L2 15.8L2 7.2L2.02 7.01L2.06 6.82L2.13 6.65L2.23 6.49L2.35 6.35L2.49 6.23L2.65 6.13L2.82 6.06L3.01 6.02L3.2 6L4 6L4.06 5.01L4.23 4.07L4.5 3.2L4.86 2.42L5.31 1.73L5.84 1.13L6.43 0.65L7.07 0.3L7.77 0.08L8.5 0L9.23 0.08L9.93 0.3ZM4 15L13 15L13 8L4 8L4 15ZM6.73 3.18L6.19 4.45L6 6L11 6L10.81 4.45L10.28 3.18L9.48 2.32L8.5 2L7.52 2.32L6.73 3.18Z" id="a6SLfrdix"></path><path d="M8 14L9 14C9 13.34 9 12.97 9 12.9C9.61 12.72 10.03 12.14 10 11.5C10 10.67 9.33 10 8.5 10C7.67 10 7 10.67 7 11.5C6.97 12.14 7.39 12.72 8 12.9C8 13.05 8 13.41 8 14Z" id="dj0Jf2jSG"></path></defs><g><g><g><use xlink:href="#a5dhw4vol" opacity="1" fill="#000000" fill-opacity="0"></use><g><use xlink:href="#a5dhw4vol" opacity="1" fill-opacity="0" stroke="#000000" stroke-width="1" stroke-opacity="0"></use></g></g><g><use xlink:href="#a6SLfrdix" opacity="1" fill="#afb9c3" fill-opacity="1"></use><g><use xlink:href="#a6SLfrdix" opacity="1" fill-opacity="0" stroke="#000000" stroke-width="1" stroke-opacity="0"></use></g></g><g><use xlink:href="#dj0Jf2jSG" opacity="1" fill="#afb9c3" fill-opacity="1"></use><g><use xlink:href="#dj0Jf2jSG" opacity="1" fill-opacity="0" stroke="#000000" stroke-width="1" stroke-opacity="0"></use></g></g></g></g></svg>