<svg xmlns="http://www.w3.org/2000/svg" width="22" height="22" viewBox="0 0 22 22"><title>Special-065w2-22x22</title><g id="Layer_2" data-name="Layer 2"><g id="Special"><path d="M11,1A10,10,0,1,1,1,11,10,10,0,0,1,11,1m0-1A11,11,0,1,0,22,11,11,11,0,0,0,11,0Z" fill="#fff"/><g id="_026" data-name="026"><path d="M11,12a8.7,8.7,0,0,0-3.5.7A2.2,2.2,0,0,0,6,14.5V18H16V14.5a2.2,2.2,0,0,0-1.5-1.8A8.7,8.7,0,0,0,11,12" fill="#fff" fill-rule="evenodd"/><path d="M11,4A3.3,3.3,0,0,0,8,7.5,3.3,3.3,0,0,0,11,11a3.3,3.3,0,0,0,3-3.5A3.3,3.3,0,0,0,11,4" fill="#fff" fill-rule="evenodd"/></g></g></g></svg>