<svg xmlns="http://www.w3.org/2000/svg" width="22" height="22" viewBox="0 0 22 22"><title>Special-032-22x22</title><g id="Layer_2" data-name="Layer 2"><g id="Special"><g id="_031" data-name="031"><rect width="22" height="22" fill="none"/><path d="M11,2c4.9,0,9,3.2,9,7.1a8.2,8.2,0,0,1-2,5l-.8.8.3,1.1.3,1.1-2.7-1.2-.7-.3-.8.2h-.1a5.3,5.3,0,0,1-1.9.2c-5,0-9.6-3.3-9.6-7S6.1,2,11,2m0-2C4.9,0,0,4.2,0,9.1s5.6,9,11.6,9a5.5,5.5,0,0,0,2.6-.4l6.5,3-1.3-5.2A10.1,10.1,0,0,0,22,9.1C22,4.2,17.1,0,11,0Z" fill="#afb9c3"/><polygon points="16 6 6 6 6 8 16 8 16 6 16 6" fill="#afb9c3"/><polygon points="16 10 6 10 6 12 16 12 16 10 16 10" fill="#afb9c3"/></g></g></g></svg>