<svg xmlns="http://www.w3.org/2000/svg" width="17" height="17" viewBox="0 0 17 17"><title>Special-075-17x17</title><g id="Layer_2" data-name="Layer 2"><g id="Special"><rect width="17" height="17" fill="none"/><path d="M13.8,6H13c0-3.4-2-6-4.5-6S4,2.6,4,6H3.2A1.2,1.2,0,0,0,2,7.2v8.6A1.2,1.2,0,0,0,3.2,17H13.8A1.2,1.2,0,0,0,15,15.8V7.2A1.2,1.2,0,0,0,13.8,6ZM8.5,2C9.9,2,11,3.8,11,6H6C6,3.8,7.1,2,8.5,2ZM13,15H4V8h9Z" fill="#f0f5fa"/><path d="M8,12.9V14H9V12.9a1.4,1.4,0,0,0,1-1.4,1.5,1.5,0,0,0-3,0A1.4,1.4,0,0,0,8,12.9Z" fill="#f0f5fa"/></g></g></svg>