<svg xmlns="http://www.w3.org/2000/svg" width="22" height="22" viewBox="0 0 22 22"><title>Special-034-22x22</title><g id="Layer_2" data-name="Layer 2"><g id="Special"><g id="_030" data-name=" 030"><path d="M0,0H22V22H0Z" fill="none"/><path d="M20,0H2V22H20V0ZM4,20V2H18V20Z" fill="#afb9c3"/><polygon points="16 8 6 8 6 10 16 10 16 8 16 8" fill="#afb9c3"/><polygon points="16 4 6 4 6 6 16 6 16 4 16 4" fill="#afb9c3"/><polygon points="16 12 6 12 6 14 16 14 16 12 16 12" fill="#afb9c3"/><polygon points="16 16 6 16 6 18 16 18 16 16 16 16" fill="#afb9c3"/></g></g></g></svg>