<svg xmlns="http://www.w3.org/2000/svg" width="22" height="22" viewBox="0 0 22 22"><title>Special-035-22x22</title><g id="Layer_2" data-name="Layer 2"><g id="Special"><g id="_030" data-name=" 030"><path d="M0,0H22V22H0Z" fill="none"/><path d="M22,13c0-2.9-2.8-5.8-7-6h0c0-3-2.5-6-7.5-6S0,4,0,7s.8,2.8,2,4L1,15l5-2.3L7,13H7c0,3,2,6,7,6a4.2,4.2,0,0,0,2-.3L21,21l-1-4C21.2,15.8,22,15,22,13ZM6.7,10.8H6.6l-.7-.2-.7.3L4,11.4l.2-1-.8-.8C2.3,8.5,2,8.1,2,7S4.2,3,7.5,3,13,5,13,7h0A6.6,6.6,0,0,0,7.4,11ZM18,17.4l-1.2-.5-.7-.3-.7.2h-.1A2.7,2.7,0,0,1,14,17c-4.5,0-5-2.8-5-4H9a3.7,3.7,0,0,1,.8-2.2,4.4,4.4,0,0,1,2.5-1.5A7.3,7.3,0,0,1,14.5,9h.2c3.2.1,5.3,2.1,5.3,4s-.3,1.5-1.4,2.6l-.8.8Z" fill="#afb9c3"/></g></g></g></svg>