<svg xmlns="http://www.w3.org/2000/svg" width="33" height="33" viewBox="0 0 33 33"><title>Special-015b-33x33</title><g id="Layer_2" data-name="Layer 2"><g id="Special"><path d="M16.5,1A15.5,15.5,0,1,1,1,16.5,15.6,15.6,0,0,1,16.5,1m0-1A16.5,16.5,0,1,0,33,16.5,16.5,16.5,0,0,0,16.5,0Z" fill="#607acd"/><path d="M19.5,9A3.5,3.5,0,1,1,16,12.5,3.5,3.5,0,0,1,19.5,9m0-2A5.5,5.5,0,1,0,25,12.5,5.5,5.5,0,0,0,19.5,7Z" fill="#607acd"/><polyline points="16 16 9 23 12 26" fill="none" stroke="#607acd" stroke-miterlimit="10" stroke-width="2"/><line x1="15" y1="23" x2="12" y2="20" fill="none" stroke="#607acd" stroke-miterlimit="10" stroke-width="2"/></g></g></svg>