<svg xmlns="http://www.w3.org/2000/svg" width="33" height="33" viewBox="0 0 33 33"><title>Special-064w-33x33</title><g id="Layer_2" data-name="Layer 2"><g id="Special"><rect width="33" height="33" fill="none"/><path d="M16.5,1A15.5,15.5,0,1,1,1,16.5,15.6,15.6,0,0,1,16.5,1m0-1A16.5,16.5,0,1,0,33,16.5,16.5,16.5,0,0,0,16.5,0Z" fill="#fff"/><path d="M16.5,25c1.2,0,2.4-2,3-5h-6C14.1,23,15.3,25,16.5,25Z" fill="#fff"/><path d="M13,16.5a19.5,19.5,0,0,0,.2,2.5h6.6a19.5,19.5,0,0,0,.2-2.5,19.5,19.5,0,0,0-.2-2.5H13.2A19.5,19.5,0,0,0,13,16.5Z" fill="#fff"/><path d="M11.8,16.5A19.5,19.5,0,0,1,12,14H7.3a10.6,10.6,0,0,0,0,5H12A19.5,19.5,0,0,1,11.8,16.5Z" fill="#fff"/><path d="M12,20H7.5a9.3,9.3,0,0,0,8.6,6C14.2,26,12.7,23.5,12,20Z" fill="#fff"/><path d="M21.2,16.5A19.5,19.5,0,0,1,21,19h4.7a10.6,10.6,0,0,0,0-5H21A19.5,19.5,0,0,1,21.2,16.5Z" fill="#fff"/><path d="M17,26a9.3,9.3,0,0,0,8.6-6H21.1C20.4,23.5,18.9,26,17,26Z" fill="#fff"/><path d="M16.5,8c1.2,0,2.4,2,3,5h-6C14.1,10,15.3,8,16.5,8Z" fill="#fff"/><path d="M12,13H7.5a9.3,9.3,0,0,1,8.6-6C14.2,7,12.7,9.5,12,13Z" fill="#fff"/><path d="M17,7a9.3,9.3,0,0,1,8.6,6H21.1C20.4,9.5,18.9,7,17,7Z" fill="#fff"/></g></g></svg>