<svg xmlns="http://www.w3.org/2000/svg" width="33" height="33" viewBox="0 0 33 33"><title>Special-064w2-33x33</title><g id="Layer_2" data-name="Layer 2"><g id="Special"><rect width="33" height="33" fill="none"/><path d="M16.5,0A16.5,16.5,0,1,0,33,16.5,16.5,16.5,0,0,0,16.5,0Zm9.1,13H21.1c-.7-3.5-2.2-6-4.1-6A9.3,9.3,0,0,1,25.6,13ZM20,16.5a19.5,19.5,0,0,1-.2,2.5H13.2a19.5,19.5,0,0,1-.2-2.5,19.5,19.5,0,0,1,.2-2.5h6.6A19.5,19.5,0,0,1,20,16.5ZM19.5,13h-6c.6-3,1.8-5,3-5S18.9,10,19.5,13ZM16.1,7c-1.9,0-3.4,2.5-4.1,6H7.5A9.3,9.3,0,0,1,16.1,7ZM7,16.5A10.1,10.1,0,0,1,7.3,14H12a19.5,19.5,0,0,0-.2,2.5A19.5,19.5,0,0,0,12,19H7.3A10.1,10.1,0,0,1,7,16.5ZM7.5,20H12c.7,3.5,2.2,6,4.1,6A9.3,9.3,0,0,1,7.5,20Zm6,0h6c-.6,3-1.8,5-3,5S14.1,23,13.5,20ZM17,26c1.9,0,3.4-2.5,4.1-6h4.5A9.3,9.3,0,0,1,17,26Zm8.7-7H21a19.5,19.5,0,0,0,.2-2.5A19.5,19.5,0,0,0,21,14h4.7a10.6,10.6,0,0,1,0,5Z" fill="#fff"/></g></g></svg>