<svg xmlns="http://www.w3.org/2000/svg" viewBox="0 0 22 18"><defs><style>.cls-1{fill:#fff;}</style></defs><title>tw</title><g id="Layer_2" data-name="Layer 2"><g id="Layer_1-2" data-name="Layer 1"><path class="cls-1" d="M22,2.13a9,9,0,0,1-2.59.72,4.55,4.55,0,0,0,2-2.51,9,9,0,0,1-2.87,1.1,4.51,4.51,0,0,0-7.81,3.11,4.59,4.59,0,0,0,.12,1A12.79,12.79,0,0,1,1.53.83,4.57,4.57,0,0,0,2.93,6.9a4.47,4.47,0,0,1-2-.57v.06A4.54,4.54,0,0,0,4.5,10.84a4.49,4.49,0,0,1-2,.08,4.52,4.52,0,0,0,4.22,3.16A9,9,0,0,1,1.08,16,9.1,9.1,0,0,1,0,16a12.71,12.71,0,0,0,6.92,2A12.8,12.8,0,0,0,19.76,5.07q0-.3,0-.59A9.21,9.21,0,0,0,22,2.13Z"/></g></g></svg>