<svg xmlns="http://www.w3.org/2000/svg" width="44" height="44" viewBox="0 0 44 44"><title>Vantage-44x44_1</title><g id="Layer_2" data-name="Layer 2"><g id="Layer_1-2" data-name="Layer 1"><rect width="44" height="44" rx="5.5" fill="#c60c30"/><path d="M42.1,1.4,32,26.7,26.7,4H16l.4,1.3h8l-.3,3L23.3,16h4L27,18.9l-.7,6.7L26.1,28h4l-.4,2.9-.5,5.4-.3,2.4H26.3l.4,1.3h8L44,21.3V5.5A5.3,5.3,0,0,0,42.1,1.4Z" fill="#fff" fill-rule="evenodd"/><polygon points="8.1 8 6.7 21.3 14.7 21.3 15 18.4 15.3 16 15.3 16 16.6 16 17.7 16 20.6 16 21.5 8 8.1 8" fill="#fff"/><polygon points="23 18.7 20.6 18.7 17.7 18.7 17.7 18.7 17.1 24 17 25.3 19.4 25.3 22.3 25.3 23.6 25.3 24.4 18.7 23 18.7" fill="#fff"/><polygon points="19.4 28 17 28 14 28 12.7 28 12 34.7 18.7 34.7 19.1 30.4 19.4 28" fill="#fff"/><polygon points="21.8 30.7 21.8 30.7 21.2 36 21.2 36 26.5 36 27.1 30.7 21.8 30.7" fill="#fff"/></g></g></svg>